<svg
  data-v-9d6db3d0=""
  version="1.0"
  xmlns="http://www.w3.org/2000/svg"
  xmlns:xlink="http://www.w3.org/1999/xlink"
  width="100%"
  height="100%"
  viewBox="0 0 340.000000 250.000000"
  preserveAspectRatio="xMidYMid meet"
  color-interpolation-filters="sRGB"
  class="el-tooltip"
  style="margin: auto;"
>
  <rect
    data-v-9d6db3d0=""
    x="0"
    y="0"
    width="100%"
    height="100%"
    fill="#fff"
    fill-opacity="1"
  ></rect>
  <rect
    data-v-9d6db3d0=""
    x="0"
    y="0"
    width="100%"
    height="100%"
    fill="url(#watermark)"
    fill-opacity="1"
    class="watermarklayer"
  ></rect>
  <g
    data-v-9d6db3d0=""
    fill="#ab8eeb"
    class="icon-text-wrapper icon-svg-group iconsvg"
    transform="translate(120.87749862670898,70.91265487670898)"
  >
    <g class="iconsvg-imagesvg" transform="translate(19.122501373291016,0)">
      <rect
        fill="#ab8eeb"
        fill-opacity="0"
        stroke-width="2"
        x="0"
        y="0"
        width="60"
        height="52.54830287206177"
        class="image-rect"
      ></rect>
      <svg
        x="0"
        y="0"
        width="60"
        height="52.54830287206177"
        filtersec="colorsb3329450368"
        class="image-svg-svg"
      >
        <svg xmlns="http://www.w3.org/2000/svg" viewBox="0 0 114.9 100.63">
          <defs>
            <linearGradient
              id="a4da08b85-dee1-4188-95d6-6890cbb57aa2"
              x1="28.81"
              y1="16.27"
              x2="94.7"
              y2="82.17"
              gradientUnits="userSpaceOnUse"
            >
              <stop offset="0" stop-color="#ffb2c2"></stop>
              <stop offset="1" stop-color="#f85e8a"></stop>
            </linearGradient>
          </defs>
          <g style="isolation: isolate;">
            <g>
              <path
                d="M61.4 3.6C40.68 3.61 7.62 21.86 16 58.68c8.63 38 49.38 48.23 73.86 27.84 27.57-23 27.19-51.3 17.18-49.2-9.58 2-16.47 28.46-26.47 29.94-6.65 1-13.4-19.3-18-18.91-5.16.43-7.19 27.47-21.67 21.48-11-4.56 8.17-37.75 11-42.11s10-6 15.1.31c8.6 10.7 10.89 17.41 17.67 9.34C92.78 27.63 107 3.57 61.4 3.6z"
                fill="url(#a4da08b85-dee1-4188-95d6-6890cbb57aa2)"
              ></path>
              <path
                d="M93.29 19.73c4.12-1.15 7-3.1 7.58-6.62C102.57 2.79 67.73-7.11 44.43 7a48.07 48.07 0 0 1 17-3.41c25.79-.01 32.44 7.69 31.86 16.14z"
                fill="#ffbd88"
                style="mix-blend-mode: multiply;"
              ></path>
              <path
                d="M24.24 44.72C22.8 73 47.81 84.9 56.12 59.48c-3 6.83-7.24 13.68-15.27 10.35-10.52-4.35 6.52-34.83 10.5-41.35l.47-.76c6.6-10.16 32.24-5.42 41.47-8 .58-8.44-6.07-16.14-31.89-16.12A48.07 48.07 0 0 0 44.43 7c-10.85 6.59-19.19 18.36-20.19 37.72z"
                fill="#ffbd88"
                style="mix-blend-mode: multiply;"
              ></path>
              <path
                d="M16 58.68a51.33 51.33 0 0 1-1.33-10.77c-4.87 8-7.27 17.36-5.08 27.16 3.85 17.33 19.53 23.51 37.04 19.32C32.45 89.55 20.27 77.54 16 58.68z"
                fill="#f757af"
                style="mix-blend-mode: multiply;"
              ></path>
              <path
                d="M80.56 67.26c-6.65 1-13.4-19.3-18-18.91-5.16.43-7.19 27.47-21.67 21.48-11-4.56 8.17-37.75 11-42.11a8.8 8.8 0 0 1 12.9-1.85c-10-9.77-37.83 1.92-50.06 22A51.33 51.33 0 0 0 16 58.68c4.28 18.86 16.46 30.87 30.64 35.71 17.81-4.27 37.53-19.26 48.68-44.18C90.69 58 86.1 66.44 80.56 67.26z"
                fill="#f757af"
                style="mix-blend-mode: multiply;"
              ></path>
              <path
                d="M108.47 63.73a72.38 72.38 0 0 1-18.62 22.79A44.29 44.29 0 0 1 79.47 93c8.63 1.21 17.13.59 23.89-2.61 15.82-7.51 13.18-20.76 5.11-26.66z"
                fill="#ab8eeb"
                style="mix-blend-mode: multiply;"
              ></path>
              <path
                d="M108.47 63.73a15.82 15.82 0 0 0-3.86-2.08c-7-2.58-12-5.9-5.5-17.44-6 8.55-11.5 22-18.55 23.05-6.65 1-13.4-19.3-18-18.91-5.16.43-7.19 27.47-21.67 21.48-2.45-1-3.4-3.44-3.38-6.65l-.12.18C37.9 77 59 90.11 79.47 93a44.29 44.29 0 0 0 10.38-6.45 72.38 72.38 0 0 0 18.62-22.82z"
                fill="#ab8eeb"
                style="mix-blend-mode: multiply;"
              ></path>
              <path
                d="M97.65 29.89C100.57 32 117.42 18.58 110.92 14s-16.2 13.83-13.27 15.89zM13.09 44.34c1.64-1.62-2.49-8.57-6.17-5s4.52 6.66 6.17 5z"
                fill="#f757af"
              ></path>
              <path
                d="M104.84 31.46c-1.17 4.1 10.85 3.5 9.29-3-1.03-4.26-8.55.38-9.29 3zM44.15 96.68c-2.59 3.57 2.89 6 3.39 1.59.29-2.51-1.95-3.57-3.39-1.59z"
                fill="#ab8eeb"
                style="mix-blend-mode: multiply;"
              ></path>
              <path
                d="M10.9 47.49c-2-1.52-6.63-2.8-9.53-1.08-2.44 1.45-2.37 9.18 6.81 5.12 5.28-2.32 3.67-3.31 2.72-4.04z"
                fill="#ffbd88"
                style="mix-blend-mode: multiply;"
              ></path>
            </g>
          </g>
        </svg>
      </svg>
      <!---->
    </g>
    <g transform="translate(0,59.55994415283203)">
      <g
        fill-rule=""
        class="tp-name iconsvg-namesvg"
        transform="translate(0,0)"
      >
        <g hollow-target="custom">
          <path
            d="M20.65 0.14L20.65-16.06L17.10-21.15L5.58-21.15L2.02-16.06L2.02 0.14L6.71 0.14L6.71-14.49C7.11-15.07 7.38-15.34 7.65-15.84C7.79-16.06 7.92-16.25 8.05-16.43L14.63-16.43C15.12-15.79 15.16-15.62 15.48-15.21C15.62-14.98 15.79-14.67 15.97-14.40L15.97 0.14ZM39.47 0.14L44.37-5.63L44.37-15.16L39.47-21.15L29.61-21.15L24.70-15.16L24.70-5.63L29.61 0.14ZM31.77-4.59C31.14-5.31 30.78-5.80 30.20-6.43C29.88-6.75 29.70-7.02 29.38-7.38L29.38-13.54C30.20-14.49 31.00-15.48 31.81-16.43L37.26-16.43C38.16-15.25 38.74-14.58 39.60-13.59L39.69-13.50L39.69-7.33C39.24-6.75 38.88-6.39 38.48-5.98C38.07-5.54 37.75-5.08 37.30-4.59ZM60.21-20.93L54.67-20.93L53.10-18.50L53.10-21.87L48.42-21.87L48.42 0.09L53.10 0.09L53.10-9.63C54.45-11.74 56.02-14.13 57.28-16.25L60.21-16.25ZM64.26-21.29L68.72-21.29L68.72-28.17L73.44-28.17L73.44-21.29L79.11-21.29L79.11-16.56L73.44-16.56L73.44-6.30C73.80-5.85 74.34-5.26 74.75-4.77L78.93-4.77L78.93-0.04L72.58-0.04L68.72-4.63L68.72-16.56L64.26-16.56ZM100.26-0.14L100.26-17.50L96.25-21.33L87.84-21.33L87.84-30.55L83.16-30.55L83.16-0.14L87.84-0.14L87.84-16.61L94.32-16.61C94.77-16.16 95.08-15.88 95.53-15.43L95.53-0.14Z"
            transform="translate(-2.025, 30.555)"
          ></path>
        </g>
        <!---->
        <!---->
        <!---->
        <!---->
        <!---->
        <!---->
        <g
          fill="#ab8eeb"
          hollow-target="custom"
          transform="translate(101.24000549316406,0)"
        ></g>
      </g>
      <g
        fill-rule=""
        class="tp-slogan iconsvg-slogansvg"
        fill="#333333"
        transform="translate(0,37.689998626708984)"
      >
        <!---->
        <rect
          x="0"
          height="1"
          y="4.9610595703125"
          width="22.660003662109375"
        ></rect>
        <rect
          height="1"
          y="4.9610595703125"
          width="22.660003662109375"
          x="75.58000183105469"
        ></rect>
        <g hollow-target="custom" transform="translate(25.660003662109375,0)">
          <path
            d="M5.25-9.52L5.25-9.52Q6.61-9.47 6.84-9.33L6.84-9.33Q6.84-9.28 6.80-9.19L6.80-9.19Q6.52-8.72 6.52-7.73L6.52-7.73L6.52 0Q6.89 0.75 4.27 0.94L4.27 0.94Q4.22 0.23 3.70-0.33L3.70-0.33Q5.58-0.09 5.39-0.66L5.39-0.66L5.39-7.69Q5.39-9 5.25-9.52ZM7.64-6.33L8.67-6.89Q10.22-4.41 11.34-1.88L11.34-1.88L10.03-1.27Q9-4.17 7.64-6.33L7.64-6.33ZM2.67-6.84L2.67-6.84Q3.89-6.61 4.08-6.42L4.08-6.42Q4.08-6.38 3.98-6.33L3.98-6.33Q3.70-6 3.56-5.53L3.56-5.53Q2.86-3.61 1.73-1.03L1.73-1.03Q1.13-1.41 0.38-1.41L0.38-1.41Q1.88-3 2.67-6.84ZM18.47-9.38L18.47-9.38Q19.78-9.38 19.78-9.28L19.78-9.28Q19.78-9.23 19.73-9.19L19.73-9.19Q19.50-8.95 19.50-8.58L19.50-8.58L19.50-5.11Q21.19-6.09 22.08-6.94L22.08-6.94Q22.69-6.38 22.97-5.91L22.97-5.91Q22.92-5.81 22.55-5.72L22.55-5.72Q22.31-5.63 22.22-5.58L22.22-5.58Q20.81-4.83 19.50-4.17L19.50-4.17L19.50-0.98Q19.36 0 20.48-0.09L20.48-0.09L21.19-0.09Q21.89-0.05 22.17-1.69L22.17-1.69Q22.73-1.22 23.34-1.03L23.34-1.03Q22.78 0.89 21.52 0.75L21.52 0.75L20.30 0.75Q18.33 0.89 18.56-1.03L18.56-1.03L18.56-8.48Q18.56-8.81 18.47-9.38ZM15.84-9.38L15.84-9.38Q16.92-9.38 17.16-9.28L17.16-9.28Q17.16-9.23 17.11-9.09L17.11-9.09Q16.88-8.77 16.88-8.30L16.88-8.30L16.88-0.70Q16.88 0.42 16.97 0.89L16.97 0.89L15.84 0.89Q15.89 0.70 15.89-0.56L15.89-0.56L15.89-0.80Q14.20-0.23 12.89 0.23L12.89 0.23L12.42-0.84Q13.88-1.08 15.89-1.73L15.89-1.73L15.89-5.16L14.30-5.16Q13.55-5.16 13.03-5.06L13.03-5.06L13.03-6.14Q13.13-6.05 14.30-6.05L14.30-6.05L15.89-6.05L15.89-8.16Q15.89-8.95 15.84-9.33L15.84-9.33Q15.84-9.38 15.84-9.38ZM25.41-9.23L25.41-9.23Q26.44-9.14 27.52-9.09L27.52-9.09L32.30-9.09Q33.80-9.14 34.64-9.19L34.64-9.19Q34.64-8.95 34.59-8.11L34.59-8.11Q34.55-7.41 34.55-7.27L34.55-7.27L34.55 0Q34.55 1.08 32.53 1.13L32.53 1.13Q32.34 0.28 31.92-0.14L31.92-0.14Q33.23 0.14 33.61-0.19L33.61-0.19L33.61-8.20L26.48-8.20L26.48-0.89Q26.48 0.61 26.53 1.03L26.53 1.03L25.45 1.03Q25.45 0.94 25.50 0.52L25.50 0.52Q25.55-0.38 25.55-0.89L25.55-0.89L25.55-7.13Q25.50-8.48 25.41-9.23ZM27.14-6L27.14-6.98Q27.61-6.94 28.97-6.94L28.97-6.94L30.98-6.94Q32.58-6.94 32.95-6.98L32.95-6.98L32.95-6Q32.16-6.09 30.98-6.09L30.98-6.09L28.92-6.09Q27.94-6.09 27.14-6L27.14-6ZM31.22-4.08L28.78-4.08L28.78-2.20L31.22-2.20L31.22-4.08ZM27.80-4.92L27.80-4.92Q28.17-4.88 28.69-4.88L28.69-4.88L31.17-4.88Q31.92-4.88 32.16-4.92L32.16-4.92Q32.11-4.64 32.11-4.08L32.11-4.08L32.11-2.25Q32.11-1.59 32.16-1.36L32.16-1.36Q31.88-1.41 31.22-1.41L31.22-1.41L28.73-1.41Q28.17-1.41 27.80-1.36L27.80-1.36Q27.84-1.50 27.84-2.20L27.84-2.20L27.84-4.08Q27.84-4.64 27.80-4.92ZM44.86-9.75L44.86-9.75Q45.75-9.42 46.08-9.19L46.08-9.19Q46.08-9.14 45.94-9.09L45.94-9.09Q45.70-8.91 45.61-8.77L45.61-8.77Q45.05-8.02 44.48-7.08L44.48-7.08L45.80-7.08Q46.22-7.08 46.83-7.13L46.83-7.13Q47.06-7.13 47.11-7.13L47.11-7.13Q47.06-6.94 47.06-6L47.06-6Q47.06-5.67 47.11-5.11L47.11-5.11Q47.11-4.92 47.11-4.88L47.11-4.88L46.03-4.88Q46.08-4.97 46.08-6.23L46.08-6.23L37.97-6.23Q37.97-4.78 38.02-4.78L38.02-4.78L36.89-4.78Q36.89-4.83 36.89-4.97L36.89-4.97Q36.98-5.48 36.98-6L36.98-6Q36.98-6.94 36.94-7.17L36.94-7.17Q37.27-7.13 38.16-7.08L38.16-7.08L43.50-7.08Q44.34-8.20 44.86-9.75ZM41.11-9.56L42.14-9.70Q42.33-9.42 42.80-7.92L42.80-7.92L41.72-7.73Q41.53-8.44 41.11-9.56L41.11-9.56ZM38.16-8.81L39.09-9.28Q39.56-8.86 40.27-7.73L40.27-7.73L39.28-7.31Q38.77-8.25 38.16-8.81L38.16-8.81ZM38.72-4.08L38.72-5.11Q38.77-5.11 38.91-5.11L38.91-5.11Q39.70-5.02 40.50-5.02L40.50-5.02L44.30-5.02Q45.23-5.02 45.38-5.06L45.38-5.06L45.38-3.94Q44.39-3.75 42.75-3.05L42.75-3.05L42.75-2.63L45.33-2.63Q46.27-2.63 47.11-2.72L47.11-2.72Q47.25-2.72 47.30-2.72L47.30-2.72L47.30-1.59Q47.25-1.59 47.11-1.59L47.11-1.59Q46.27-1.69 45.42-1.69L45.42-1.69L42.70-1.69L42.70 0.09Q42.94 1.22 40.78 1.17L40.78 1.17Q40.64 0.47 40.27 0.05L40.27 0.05Q41.81 0.28 41.72-0.19L41.72-0.19L41.72-1.69L38.48-1.69Q37.92-1.69 37.03-1.59L37.03-1.59Q36.80-1.59 36.75-1.59L36.75-1.59L36.75-2.72Q36.80-2.72 37.08-2.72L37.08-2.72Q38.02-2.63 38.48-2.63L38.48-2.63L41.72-2.63L41.72-3.47Q42.56-3.80 43.69-4.17L43.69-4.17L40.50-4.17Q39.70-4.17 38.86-4.08L38.86-4.08Q38.72-4.08 38.72-4.08L38.72-4.08Z"
            transform="translate(-0.375, 9.75)"
          ></path>
        </g>
      </g>
    </g>
  </g>
</svg>
